<svg width="1584" height="396" viewBox="0 0 1584 396" fill="none" xmlns="http://www.w3.org/2000/svg">
<rect width="1584" height="396" fill="#F5F5F5"/>
<g id="Awesome banner" clip-path="url(#clip0_0_1)">
<rect width="1584" height="396" fill="url(#paint0_linear_0_1)"/>
<ellipse id="Ellipse 2" cx="323" cy="64" rx="285" ry="288" fill="url(#paint1_linear_0_1)" fill-opacity="0.1"/>
<g id="copyright">
<path d="M75.95 334.52L72.30 334.52L72.30 311.16L77.20 311.16L83.70 330.04Q83.60 329.02 83.50 327.62Q83.41 326.23 83.33 324.79Q83.25 323.35 83.25 322.23L83.25 311.16L86.90 311.16L86.90 334.52L82 334.52L75.57 315.64Q75.63 316.57 75.73 317.88Q75.82 319.19 75.89 320.57Q75.95 321.94 75.95 323.10L75.95 334.52M98.80 334.84Q96.46 334.84 94.67 333.96Q92.88 333.08 91.89 331.53Q90.90 329.98 90.90 327.93Q90.90 325.78 92.13 324.18Q93.36 322.58 95.34 322.17L95.34 322.10Q93.65 321.75 92.61 320.38Q91.57 319 91.57 317.11Q91.57 315.26 92.48 313.85Q93.39 312.44 95.02 311.64Q96.66 310.84 98.80 310.84Q100.94 310.84 102.59 311.64Q104.24 312.44 105.15 313.85Q106.06 315.26 106.06 317.11Q106.06 319 105.01 320.38Q103.95 321.75 102.26 322.10L102.26 322.17Q104.24 322.58 105.47 324.18Q106.70 325.78 106.70 327.93Q106.70 329.98 105.71 331.53Q104.72 333.08 102.93 333.96Q101.14 334.84 98.80 334.84M98.80 320.73Q100.30 320.73 101.23 319.82Q102.16 318.90 102.16 317.46Q102.16 315.99 101.23 315.08Q100.30 314.17 98.80 314.17Q97.30 314.17 96.37 315.08Q95.44 315.99 95.44 317.46Q95.44 318.90 96.37 319.82Q97.30 320.73 98.80 320.73M98.80 331.45Q100.56 331.45 101.68 330.42Q102.80 329.40 102.80 327.74Q102.80 326.04 101.68 325Q100.56 323.96 98.80 323.96Q97.04 323.96 95.92 325Q94.80 326.04 94.80 327.74Q94.80 329.40 95.92 330.42Q97.04 331.45 98.80 331.45M114.35 334.52L110.70 334.52L110.70 311.16L115.60 311.16L122.10 330.04Q122 329.02 121.90 327.62Q121.81 326.23 121.73 324.79Q121.65 323.35 121.65 322.23L121.65 311.16L125.30 311.16L125.30 334.52L120.40 334.52L113.97 315.64Q114.03 316.57 114.13 317.88Q114.22 319.19 114.29 320.57Q114.35 321.94 114.35 323.10" fill="white" fill-opacity="0.9"/>
<path d="M161.48 325.24L151.24 325.24L151.24 322.68L161.48 322.68" fill="white" fill-opacity="0.9"/>
<path d="M195.02 334.84Q191.82 334.84 189.96 333.05Q188.11 331.26 188.11 328.12L188.11 317.56Q188.11 314.42 189.96 312.63Q191.82 310.84 195.02 310.84Q198.15 310.84 200.01 312.65Q201.87 314.46 201.87 317.56L198.99 317.56Q198.99 315.58 197.95 314.50Q196.91 313.43 195.02 313.43Q193.13 313.43 192.06 314.50Q190.99 315.58 190.99 317.56L190.99 328.12Q190.99 330.10 192.06 331.18Q193.13 332.25 195.02 332.25Q196.91 332.25 197.95 331.18Q198.99 330.10 198.99 328.12L201.87 328.12Q201.87 331.22 200.01 333.03Q198.15 334.84 195.02 334.84" fill="white" fill-opacity="0.9"/>
<path d="M213.96 334.84Q210.83 334.84 209 333.02Q207.18 331.19 207.18 327.80L207.18 317.88Q207.18 314.49 209 312.66Q210.83 310.84 213.96 310.84Q217.10 310.84 218.92 312.66Q220.75 314.49 220.75 317.85L220.75 327.80Q220.75 331.19 218.92 333.02Q217.10 334.84 213.96 334.84M213.96 332.25Q215.85 332.25 216.86 331.18Q217.87 330.10 217.87 328.12L217.87 317.56Q217.87 315.58 216.86 314.50Q215.85 313.43 213.96 313.43Q212.11 313.43 211.08 314.50Q210.06 315.58 210.06 317.56L210.06 328.12Q210.06 330.10 211.08 331.18Q212.11 332.25 213.96 332.25" fill="white" fill-opacity="0.9"/>
<path d="M228.65 334.52L225.87 334.52L225.87 311.16L230.12 311.16L233.10 321.27L236.20 311.16L240.46 311.16L240.46 334.52L237.67 334.52L237.67 323.48Q237.67 321.91 237.72 319.88Q237.77 317.85 237.87 315.77Q237.96 313.69 238.09 312.02L234.31 324.09L231.82 324.09L228.20 312.31Q228.46 314.68 228.55 317.50Q228.65 320.31 228.65 323.48" fill="white" fill-opacity="0.9"/>
<path d="M247.85 334.52L245.07 334.52L245.07 311.16L249.32 311.16L252.30 321.27L255.40 311.16L259.66 311.16L259.66 334.52L256.87 334.52L256.87 323.48Q256.87 321.91 256.92 319.88Q256.97 317.85 257.07 315.77Q257.16 313.69 257.29 312.02L253.51 324.09L251.02 324.09L247.40 312.31Q247.66 314.68 247.75 317.50Q247.85 320.31 247.85 323.48" fill="white" fill-opacity="0.9"/>
<path d="M271.56 334.84Q268.30 334.84 266.57 333.03Q264.84 331.22 264.84 328.12L264.84 311.16L267.72 311.16L267.72 328.12Q267.72 330.04 268.67 331.16Q269.61 332.28 271.56 332.28Q273.48 332.28 274.44 331.16Q275.40 330.04 275.40 328.12L275.40 311.16L278.28 311.16L278.28 328.12Q278.28 331.26 276.57 333.05Q274.86 334.84 271.56 334.84" fill="white" fill-opacity="0.9"/>
<path d="M286.83 334.52L284.04 334.52L284.04 311.16L287.88 311.16L295.02 331.16Q294.95 330.36 294.87 329.19Q294.79 328.02 294.75 326.73Q294.70 325.43 294.70 324.28L294.70 311.16L297.48 311.16L297.48 334.52L293.64 334.52L286.54 314.52Q286.60 315.29 286.67 316.46Q286.73 317.62 286.78 318.92Q286.83 320.22 286.83 321.40" fill="white" fill-opacity="0.9"/>
<path d="M316.20 334.52L303.72 334.52L303.72 331.90L308.49 331.90L308.49 313.78L303.72 313.78L303.72 311.16L316.20 311.16L316.20 313.78L311.43 313.78L311.43 331.90L316.20 331.90" fill="white" fill-opacity="0.9"/>
<path d="M330.60 334.52L327.72 334.52L327.72 313.78L321.32 313.78L321.32 311.16L337 311.16L337 313.78L330.60 313.78" fill="white" fill-opacity="0.9"/>
<path d="M349.80 334.52L346.92 334.52L346.92 325.78L339.88 311.16L342.95 311.16L347.50 320.76Q347.88 321.56 348.11 322.12Q348.33 322.68 348.39 322.94Q348.46 322.68 348.70 322.12Q348.94 321.56 349.32 320.76L353.87 311.16L356.84 311.16L349.80 325.78" fill="white" fill-opacity="0.9"/>
<path d="M382.83 334.52L380.04 334.52L380.04 311.16L383.88 311.16L391.02 331.16Q390.95 330.36 390.87 329.19Q390.79 328.02 390.75 326.73Q390.70 325.43 390.70 324.28L390.70 311.16L393.48 311.16L393.48 334.52L389.64 334.52L382.54 314.52Q382.60 315.29 382.67 316.46Q382.73 317.62 382.78 318.92Q382.83 320.22 382.83 321.40" fill="white" fill-opacity="0.9"/>
<path d="M405.96 334.84Q402.83 334.84 401 333.02Q399.18 331.19 399.18 327.80L399.18 317.88Q399.18 314.49 401 312.66Q402.83 310.84 405.96 310.84Q409.10 310.84 410.92 312.66Q412.75 314.49 412.75 317.85L412.75 327.80Q412.75 331.19 410.92 333.02Q409.10 334.84 405.96 334.84M405.96 332.25Q407.85 332.25 408.86 331.18Q409.87 330.10 409.87 328.12L409.87 317.56Q409.87 315.58 408.86 314.50Q407.85 313.43 405.96 313.43Q404.11 313.43 403.08 314.50Q402.06 315.58 402.06 317.56L402.06 328.12Q402.06 330.10 403.08 331.18Q404.11 332.25 405.96 332.25" fill="white" fill-opacity="0.9"/>
<path d="M424.55 334.52L418.51 334.52L418.51 311.16L424.55 311.16Q426.83 311.16 428.47 312.02Q430.12 312.89 431.03 314.46Q431.95 316.02 431.95 318.17L431.95 327.48Q431.95 329.62 431.03 331.21Q430.12 332.79 428.47 333.66Q426.83 334.52 424.55 334.52M421.39 313.72L421.39 331.96L424.55 331.96Q426.67 331.96 427.87 330.78Q429.07 329.59 429.07 327.48L429.07 318.17Q429.07 316.09 427.87 314.90Q426.67 313.72 424.55 313.72" fill="white" fill-opacity="0.9"/>
<path d="M451.40 334.52L437.96 334.52L437.96 311.16L451.40 311.16L451.40 313.78L440.81 313.78L440.81 321.02L450.28 321.02L450.28 323.58L440.81 323.58L440.81 331.90L451.40 331.90" fill="white" fill-opacity="0.9"/>
<path d="M463.69 334.84Q460.30 334.84 458.28 333.05Q456.27 331.26 456.27 328.12L459.15 328.12Q459.15 330.07 460.39 331.18Q461.64 332.28 463.69 332.28Q465.67 332.28 466.86 331.13Q468.04 329.98 468.04 328.12Q468.04 326.71 467.29 325.67Q466.54 324.63 465.13 324.25L461.58 323.26Q459.37 322.62 458.11 320.97Q456.84 319.32 456.84 317.08Q456.84 315.22 457.67 313.82Q458.51 312.41 460.01 311.62Q461.51 310.84 463.47 310.84Q465.45 310.84 466.97 311.62Q468.49 312.41 469.35 313.80Q470.22 315.19 470.22 317.02L467.34 317.02Q467.34 315.42 466.25 314.41Q465.16 313.40 463.47 313.40Q461.77 313.40 460.71 314.41Q459.66 315.42 459.66 317.02Q459.66 318.30 460.35 319.21Q461.03 320.12 462.28 320.47L465.93 321.50Q468.27 322.14 469.56 323.91Q470.86 325.69 470.86 328.12Q470.86 331.19 468.91 333.02Q466.95 334.84 463.69 334.84" fill="white" fill-opacity="0.9"/>
</g>
<path d="M74.37 197.64L72.21 197.64L72.21 180.12L77.85 180.12Q80.30 180.12 81.75 181.52Q83.20 182.93 83.20 185.28Q83.20 187.63 81.75 189.04Q80.30 190.44 77.85 190.44L74.37 190.44L74.37 197.64M74.37 182.06L74.37 188.50L77.85 188.50Q79.26 188.50 80.12 187.62Q80.97 186.74 80.97 185.28Q80.97 183.79 80.12 182.93Q79.26 182.06 77.85 182.06" fill="white" fill-opacity="0.7"/>
<path d="M91.70 197.88Q89.15 197.88 87.64 196.54Q86.13 195.19 86.13 192.84L88.29 192.84Q88.29 194.30 89.22 195.13Q90.16 195.96 91.70 195.96Q93.18 195.96 94.07 195.10Q94.96 194.23 94.96 192.84Q94.96 191.78 94.40 191Q93.83 190.22 92.78 189.94L90.11 189.19Q88.46 188.71 87.51 187.48Q86.56 186.24 86.56 184.56Q86.56 183.17 87.18 182.11Q87.81 181.06 88.94 180.47Q90.06 179.88 91.53 179.88Q93.02 179.88 94.16 180.47Q95.30 181.06 95.94 182.10Q96.59 183.14 96.59 184.51L94.43 184.51Q94.43 183.31 93.62 182.56Q92.80 181.80 91.53 181.80Q90.26 181.80 89.46 182.56Q88.67 183.31 88.67 184.51Q88.67 185.47 89.19 186.16Q89.70 186.84 90.64 187.10L93.38 187.87Q95.13 188.35 96.10 189.68Q97.07 191.02 97.07 192.84Q97.07 195.14 95.61 196.51Q94.14 197.88 91.70 197.88" fill="white" fill-opacity="0.7"/>
<path d="M111.28 197.64L101.20 197.64L101.20 180.12L111.28 180.12L111.28 182.09L103.34 182.09L103.34 187.51L110.44 187.51L110.44 189.43L103.34 189.43L103.34 195.67L111.28 195.67" fill="white" fill-opacity="0.7"/>
<path d="M120.76 197.64L115.43 197.64L115.43 180.12L120.40 180.12Q122.80 180.12 124.16 181.32Q125.51 182.52 125.51 184.66Q125.51 186 124.66 187.08Q123.81 188.16 122.44 188.42L122.44 188.50Q123.47 188.62 124.25 189.22Q125.03 189.82 125.48 190.74Q125.92 191.66 125.92 192.77Q125.92 195.02 124.54 196.33Q123.16 197.64 120.76 197.64M117.54 182.06L117.54 187.58L120.38 187.58Q121.77 187.58 122.57 186.84Q123.38 186.10 123.38 184.82Q123.38 183.55 122.58 182.81Q121.79 182.06 120.40 182.06L117.54 182.06M117.54 189.46L117.54 195.70L120.52 195.70Q122.03 195.70 122.91 194.89Q123.78 194.09 123.78 192.70Q123.78 191.26 122.91 190.36Q122.03 189.46 120.52 189.46" fill="white" fill-opacity="0.7"/>
<path d="M154.65 197.64L144.06 197.64L144.06 195.65L149.90 189.41Q151.17 188.06 151.70 187.01Q152.22 185.95 152.22 184.94Q152.22 183.50 151.40 182.65Q150.57 181.80 149.15 181.80Q147.69 181.80 146.84 182.68Q145.98 183.55 145.98 185.04L143.82 185.04Q143.90 182.66 145.34 181.27Q146.78 179.88 149.15 179.88Q151.58 179.88 153 181.25Q154.43 182.62 154.43 184.97Q154.43 186.22 153.75 187.61Q153.06 189 151.41 190.73L146.68 195.67L154.65 195.67" fill="white" fill-opacity="0.7"/>
<path d="M163.60 197.88Q161.18 197.88 159.75 196.48Q158.32 195.07 158.32 192.72L158.32 185.04Q158.32 182.69 159.75 181.28Q161.18 179.88 163.60 179.88Q166.02 179.88 167.45 181.28Q168.88 182.69 168.88 185.04L168.88 192.72Q168.88 194.28 168.23 195.44Q167.58 196.61 166.40 197.24Q165.21 197.88 163.60 197.88M163.60 196.03Q165.04 196.03 165.92 195.11Q166.79 194.18 166.79 192.72L166.79 185.04Q166.79 183.58 165.92 182.65Q165.04 181.73 163.60 181.73Q162.16 181.73 161.28 182.65Q160.41 183.58 160.41 185.04L160.41 192.72Q160.41 194.18 161.28 195.11Q162.16 196.03 163.60 196.03M163.60 190.20Q162.95 190.20 162.56 189.84Q162.16 189.48 162.16 188.81Q162.16 188.16 162.56 187.81Q162.95 187.46 163.60 187.46Q164.25 187.46 164.64 187.81Q165.04 188.16 165.04 188.81Q165.04 189.48 164.64 189.84Q164.25 190.20 163.60 190.20" fill="white" fill-opacity="0.7"/>
<path d="M183.76 197.64L172.96 197.64L172.96 195.67L177.71 195.67L177.71 181.99L172.96 185.54L172.96 183.07L176.92 180.12L179.87 180.12L179.87 195.67L183.76 195.67" fill="white" fill-opacity="0.7"/>
<path d="M192.40 197.88Q190.74 197.88 189.47 197.23Q188.20 196.58 187.49 195.42Q186.78 194.26 186.78 192.74Q186.78 191.09 187.73 189.89Q188.68 188.69 190.26 188.42L190.26 188.35Q188.90 188.04 188.08 186.97Q187.26 185.90 187.26 184.51Q187.26 183.14 187.91 182.10Q188.56 181.06 189.72 180.47Q190.89 179.88 192.40 179.88Q193.94 179.88 195.09 180.47Q196.24 181.06 196.89 182.10Q197.54 183.14 197.54 184.51Q197.54 185.90 196.72 186.97Q195.90 188.04 194.54 188.35L194.54 188.42Q196.12 188.69 197.07 189.89Q198.02 191.09 198.02 192.74Q198.02 194.26 197.31 195.42Q196.60 196.58 195.34 197.23Q194.08 197.88 192.40 197.88M192.40 187.51Q193.74 187.51 194.56 186.72Q195.38 185.93 195.38 184.66Q195.38 183.38 194.56 182.59Q193.74 181.80 192.40 181.80Q191.08 181.80 190.25 182.59Q189.42 183.38 189.42 184.66Q189.42 185.93 190.25 186.72Q191.08 187.51 192.40 187.51M192.40 195.94Q193.94 195.94 194.90 195.04Q195.86 194.14 195.86 192.70Q195.86 191.23 194.90 190.33Q193.94 189.43 192.40 189.43Q190.86 189.43 189.90 190.33Q188.94 191.23 188.94 192.70Q188.94 194.14 189.90 195.04Q190.86 195.94 192.40 195.94" fill="white" fill-opacity="0.7"/>
<path d="M210.64 190.68L202.96 190.68L202.96 188.76L210.64 188.76" fill="white" fill-opacity="0.7"/>
<path d="M226.65 197.64L216.06 197.64L216.06 195.65L221.90 189.41Q223.17 188.06 223.70 187.01Q224.22 185.95 224.22 184.94Q224.22 183.50 223.40 182.65Q222.57 181.80 221.15 181.80Q219.69 181.80 218.84 182.68Q217.98 183.55 217.98 185.04L215.82 185.04Q215.90 182.66 217.34 181.27Q218.78 179.88 221.15 179.88Q223.58 179.88 225 181.25Q226.43 182.62 226.43 184.97Q226.43 186.22 225.75 187.61Q225.06 189 223.41 190.73L218.68 195.67L226.65 195.67" fill="white" fill-opacity="0.7"/>
<path d="M235.60 197.88Q233.18 197.88 231.75 196.48Q230.32 195.07 230.32 192.72L230.32 185.04Q230.32 182.69 231.75 181.28Q233.18 179.88 235.60 179.88Q238.02 179.88 239.45 181.28Q240.88 182.69 240.88 185.04L240.88 192.72Q240.88 194.28 240.23 195.44Q239.58 196.61 238.40 197.24Q237.21 197.88 235.60 197.88M235.60 196.03Q237.04 196.03 237.92 195.11Q238.79 194.18 238.79 192.72L238.79 185.04Q238.79 183.58 237.92 182.65Q237.04 181.73 235.60 181.73Q234.16 181.73 233.28 182.65Q232.41 183.58 232.41 185.04L232.41 192.72Q232.41 194.18 233.28 195.11Q234.16 196.03 235.60 196.03M235.60 190.20Q234.95 190.20 234.56 189.84Q234.16 189.48 234.16 188.81Q234.16 188.16 234.56 187.81Q234.95 187.46 235.60 187.46Q236.25 187.46 236.64 187.81Q237.04 188.16 237.04 188.81Q237.04 189.48 236.64 189.84Q236.25 190.20 235.60 190.20" fill="white" fill-opacity="0.7"/>
<path d="M264.59 197.88Q262.19 197.88 260.80 196.54Q259.41 195.19 259.41 192.84L259.41 184.92Q259.41 182.57 260.80 181.22Q262.19 179.88 264.59 179.88Q266.94 179.88 268.34 181.24Q269.73 182.59 269.73 184.92L267.57 184.92Q267.57 183.43 266.79 182.63Q266.01 181.82 264.59 181.82Q263.18 181.82 262.37 182.63Q261.57 183.43 261.57 184.92L261.57 192.84Q261.57 194.33 262.37 195.13Q263.18 195.94 264.59 195.94Q266.01 195.94 266.79 195.13Q267.57 194.33 267.57 192.84L269.73 192.84Q269.73 195.17 268.34 196.52Q266.94 197.88 264.59 197.88" fill="white" fill-opacity="0.7"/>
<path d="M284.80 197.64L280.72 197.64Q278.97 197.64 277.92 196.62Q276.88 195.60 276.88 193.92L276.88 182.09L272.32 182.09L272.32 180.12L279.04 180.12L279.04 193.92Q279.04 194.74 279.50 195.20Q279.95 195.67 280.72 195.67L284.80 195.67" fill="white" fill-opacity="0.7"/>
<path d="M292.05 197.88Q290.01 197.88 288.81 196.74Q287.61 195.60 287.61 193.75Q287.61 192.53 288.16 191.62Q288.71 190.70 289.70 190.19Q290.68 189.67 291.95 189.67L296.03 189.67L296.03 188.64Q296.03 186.07 293.22 186.07Q291.98 186.07 291.21 186.53Q290.44 186.98 290.39 187.80L288.23 187.80Q288.35 186.24 289.68 185.22Q291.02 184.20 293.22 184.20Q295.62 184.20 296.91 185.35Q298.19 186.50 298.19 188.57L298.19 197.64L296.06 197.64L296.06 195.24L296.01 195.24Q295.82 196.46 294.78 197.17Q293.75 197.88 292.05 197.88M292.58 196.06Q294.16 196.06 295.10 195.29Q296.03 194.52 296.03 193.20L296.03 191.35L292.19 191.35Q291.14 191.35 290.48 191.99Q289.82 192.62 289.82 193.68Q289.82 194.78 290.55 195.42Q291.28 196.06 292.58 196.06" fill="white" fill-opacity="0.7"/>
<path d="M308.13 197.83L307.07 197.83Q304.86 197.83 303.65 196.84Q302.44 195.84 302.44 194.02L304.60 194.02Q304.60 194.93 305.25 195.44Q305.90 195.96 307.07 195.96L308.13 195.96Q309.33 195.96 309.99 195.43Q310.65 194.90 310.65 193.94Q310.65 192.24 309.09 192.02L305.44 191.50Q304.10 191.30 303.35 190.38Q302.61 189.46 302.61 187.94Q302.61 186.22 303.80 185.23Q304.98 184.25 307.07 184.25L308.13 184.25Q310.05 184.25 311.26 185.20Q312.47 186.14 312.57 187.68L310.38 187.68Q310.34 186.98 309.72 186.53Q309.11 186.07 308.13 186.07L307.07 186.07Q305.97 186.07 305.34 186.58Q304.72 187.08 304.72 187.94Q304.72 189.34 305.99 189.53L309.40 190.01Q312.76 190.49 312.76 193.94Q312.76 195.79 311.55 196.81Q310.34 197.83 308.13 197.83" fill="white" fill-opacity="0.7"/>
<path d="M322.53 197.83L321.47 197.83Q319.26 197.83 318.05 196.84Q316.84 195.84 316.84 194.02L319 194.02Q319 194.93 319.65 195.44Q320.30 195.96 321.47 195.96L322.53 195.96Q323.73 195.96 324.39 195.43Q325.05 194.90 325.05 193.94Q325.05 192.24 323.49 192.02L319.84 191.50Q318.50 191.30 317.75 190.38Q317.01 189.46 317.01 187.94Q317.01 186.22 318.20 185.23Q319.38 184.25 321.47 184.25L322.53 184.25Q324.45 184.25 325.66 185.20Q326.87 186.14 326.97 187.68L324.78 187.68Q324.74 186.98 324.12 186.53Q323.51 186.07 322.53 186.07L321.47 186.07Q320.37 186.07 319.74 186.58Q319.12 187.08 319.12 187.94Q319.12 189.34 320.39 189.53L323.80 190.01Q327.16 190.49 327.16 193.94Q327.16 195.79 325.95 196.81Q324.74 197.83 322.53 197.83" fill="white" fill-opacity="0.7"/>
<path d="M352.26 197.64L349.31 197.64L344.80 180.12L347.01 180.12L350.01 192.05Q350.32 193.30 350.52 194.35Q350.73 195.41 350.82 195.96Q350.92 195.41 351.15 194.34Q351.38 193.27 351.69 192.02L354.57 180.12L356.80 180.12" fill="white" fill-opacity="0.7"/>
<path d="M365.27 201.48L363.04 201.48L364.36 194.14L366.95 194.14" fill="white" fill-opacity="0.7"/>
<path d="M395.46 197.64L392.51 197.64L388 180.12L390.21 180.12L393.21 192.05Q393.52 193.30 393.72 194.35Q393.93 195.41 394.02 195.96Q394.12 195.41 394.35 194.34Q394.58 193.27 394.89 192.02L397.77 180.12L400 180.12" fill="white" fill-opacity="0.7"/>
<path d="M413.08 197.64L403.72 197.64L403.72 195.67L407.30 195.67L407.30 182.09L403.72 182.09L403.72 180.12L413.08 180.12L413.08 182.09L409.50 182.09L409.50 195.67L413.08 195.67" fill="white" fill-opacity="0.7"/>
<path d="M427.48 197.64L418.12 197.64L418.12 195.67L421.70 195.67L421.70 182.09L418.12 182.09L418.12 180.12L427.48 180.12L427.48 182.09L423.90 182.09L423.90 195.67L427.48 195.67" fill="white" fill-opacity="0.7"/>
<path d="M441.88 197.64L432.52 197.64L432.52 195.67L436.10 195.67L436.10 182.09L432.52 182.09L432.52 180.12L441.88 180.12L441.88 182.09L438.30 182.09L438.30 195.67L441.88 195.67" fill="white" fill-opacity="0.7"/>
<path d="M451.67 201.48L449.44 201.48L450.76 194.14L453.35 194.14" fill="white" fill-opacity="0.7"/>
<path d="M476.56 197.64L474.16 197.64L479.20 188.76L474.42 180.12L476.92 180.12L479.63 185.30Q479.85 185.71 480.08 186.18Q480.30 186.65 480.45 186.91Q480.57 186.65 480.80 186.18Q481.02 185.71 481.24 185.30L484 180.12L486.38 180.12L481.60 188.62L486.64 197.64L484.17 197.64L481.17 192.07Q480.95 191.66 480.72 191.20Q480.50 190.73 480.38 190.44Q480.26 190.73 480.03 191.18Q479.80 191.64 479.58 192.05" fill="white" fill-opacity="0.7"/>
<path d="M494.87 201.48L492.64 201.48L493.96 194.14L496.55 194.14" fill="white" fill-opacity="0.7"/>
<path d="M519.76 197.64L517.36 197.64L522.40 188.76L517.62 180.12L520.12 180.12L522.83 185.30Q523.05 185.71 523.28 186.18Q523.50 186.65 523.65 186.91Q523.77 186.65 524 186.18Q524.22 185.71 524.44 185.30L527.20 180.12L529.58 180.12L524.80 188.62L529.84 197.64L527.37 197.64L524.37 192.07Q524.15 191.66 523.92 191.20Q523.70 190.73 523.58 190.44Q523.46 190.73 523.23 191.18Q523 191.64 522.78 192.05" fill="white" fill-opacity="0.7"/>
<path d="M542.68 197.64L533.32 197.64L533.32 195.67L536.90 195.67L536.90 182.09L533.32 182.09L533.32 180.12L542.68 180.12L542.68 182.09L539.10 182.09L539.10 195.67L542.68 195.67" fill="white" fill-opacity="0.7"/>
<path d="M557.08 197.64L547.72 197.64L547.72 195.67L551.30 195.67L551.30 182.09L547.72 182.09L547.72 180.12L557.08 180.12L557.08 182.09L553.50 182.09L553.50 195.67L557.08 195.67" fill="white" fill-opacity="0.7"/>
<path d="M581.39 197.88Q578.99 197.88 577.55 196.54Q576.11 195.19 576.11 192.84L576.11 189.24Q576.11 186.89 577.55 185.54Q578.99 184.20 581.39 184.20Q583.67 184.20 585.08 185.42Q586.48 186.65 586.55 188.76L584.39 188.76Q584.32 187.49 583.53 186.80Q582.74 186.12 581.39 186.12Q579.98 186.12 579.12 186.92Q578.27 187.73 578.27 189.22L578.27 192.84Q578.27 194.33 579.12 195.14Q579.98 195.96 581.39 195.96Q582.74 195.96 583.53 195.26Q584.32 194.57 584.39 193.32L586.55 193.32Q586.48 195.43 585.08 196.66Q583.67 197.88 581.39 197.88" fill="white" fill-opacity="0.7"/>
<path d="M595.60 197.88Q593.27 197.88 591.84 196.48Q590.42 195.07 590.42 192.60L590.42 189.48Q590.42 187.01 591.84 185.60Q593.27 184.20 595.60 184.20Q597.16 184.20 598.32 184.82Q599.49 185.45 600.14 186.58Q600.78 187.70 600.78 189.24L600.78 191.59L592.53 191.59L592.53 192.84Q592.53 194.30 593.37 195.16Q594.21 196.01 595.60 196.01Q596.80 196.01 597.58 195.54Q598.36 195.07 598.53 194.28L600.69 194.28Q600.47 195.94 599.08 196.91Q597.69 197.88 595.60 197.88M592.53 189.24L592.53 189.91L598.67 189.91L598.67 189.24Q598.67 187.68 597.87 186.83Q597.06 185.98 595.60 185.98Q594.14 185.98 593.33 186.83Q592.53 187.68 592.53 189.24" fill="white" fill-opacity="0.7"/>
<path d="M607.65 197.64L605.49 197.64L605.49 184.44L607.65 184.44L607.65 186.96L607.70 186.96Q607.86 185.69 608.78 184.94Q609.69 184.20 611.22 184.20Q613.29 184.20 614.40 185.44Q615.52 186.67 615.52 188.95L615.52 190.08L613.36 190.08L613.36 188.95Q613.36 186.07 610.55 186.07Q609.14 186.07 608.39 186.89Q607.65 187.70 607.65 189.24" fill="white" fill-opacity="0.7"/>
<path d="M629.56 197.64L625.72 197.64Q624.09 197.64 623.10 196.69Q622.12 195.74 622.12 194.16L622.12 186.41L618.33 186.41L618.33 184.44L622.12 184.44L622.12 180.72L624.28 180.72L624.28 184.44L629.68 184.44L629.68 186.41L624.28 186.41L624.28 194.16Q624.28 194.83 624.68 195.25Q625.07 195.67 625.72 195.67L629.56 195.67" fill="white" fill-opacity="0.7"/>
<path d="M644.92 197.64L633.64 197.64L633.64 195.67L638.32 195.67L638.32 186.41L634.12 186.41L634.12 184.44L640.48 184.44L640.48 195.67L644.92 195.67L644.92 197.64M639.16 182.06Q638.37 182.06 637.91 181.66Q637.46 181.25 637.46 180.55Q637.46 179.83 637.91 179.41Q638.37 178.99 639.16 178.99Q639.95 178.99 640.41 179.41Q640.86 179.83 640.86 180.55Q640.86 181.25 640.41 181.66Q639.95 182.06 639.16 182.06" fill="white" fill-opacity="0.7"/>
<path d="M653.32 197.64L651.16 197.64L651.16 188.21L647.32 188.21L647.32 186.24L651.16 186.24L651.16 183.48Q651.16 181.92 652.14 181.02Q653.13 180.12 654.86 180.12L658.72 180.12L658.72 182.09L654.86 182.09Q653.32 182.09 653.32 183.48L653.32 186.24L658.72 186.24L658.72 188.21L653.32 188.21" fill="white" fill-opacity="0.7"/>
<path d="M673.72 197.64L662.44 197.64L662.44 195.67L667.12 195.67L667.12 186.41L662.92 186.41L662.92 184.44L669.28 184.44L669.28 195.67L673.72 195.67L673.72 197.64M667.96 182.06Q667.17 182.06 666.71 181.66Q666.26 181.25 666.26 180.55Q666.26 179.83 666.71 179.41Q667.17 178.99 667.96 178.99Q668.75 178.99 669.21 179.41Q669.66 179.83 669.66 180.55Q669.66 181.25 669.21 181.66Q668.75 182.06 667.96 182.06" fill="white" fill-opacity="0.7"/>
<path d="M682.19 197.88Q679.79 197.88 678.35 196.54Q676.91 195.19 676.91 192.84L676.91 189.24Q676.91 186.89 678.35 185.54Q679.79 184.20 682.19 184.20Q684.47 184.20 685.88 185.42Q687.28 186.65 687.35 188.76L685.19 188.76Q685.12 187.49 684.33 186.80Q683.54 186.12 682.19 186.12Q680.78 186.12 679.92 186.92Q679.07 187.73 679.07 189.22L679.07 192.84Q679.07 194.33 679.92 195.14Q680.78 195.96 682.19 195.96Q683.54 195.96 684.33 195.26Q685.12 194.57 685.19 193.32L687.35 193.32Q687.28 195.43 685.88 196.66Q684.47 197.88 682.19 197.88" fill="white" fill-opacity="0.7"/>
<path d="M695.25 197.88Q693.21 197.88 692.01 196.74Q690.81 195.60 690.81 193.75Q690.81 192.53 691.36 191.62Q691.91 190.70 692.90 190.19Q693.88 189.67 695.15 189.67L699.23 189.67L699.23 188.64Q699.23 186.07 696.42 186.07Q695.18 186.07 694.41 186.53Q693.64 186.98 693.59 187.80L691.43 187.80Q691.55 186.24 692.88 185.22Q694.22 184.20 696.42 184.20Q698.82 184.20 700.11 185.35Q701.39 186.50 701.39 188.57L701.39 197.64L699.26 197.64L699.26 195.24L699.21 195.24Q699.02 196.46 697.98 197.17Q696.95 197.88 695.25 197.88M695.78 196.06Q697.36 196.06 698.30 195.29Q699.23 194.52 699.23 193.20L699.23 191.35L695.39 191.35Q694.34 191.35 693.68 191.99Q693.02 192.62 693.02 193.68Q693.02 194.78 693.75 195.42Q694.48 196.06 695.78 196.06" fill="white" fill-opacity="0.7"/>
<path d="M715.96 197.64L712.12 197.64Q710.49 197.64 709.50 196.69Q708.52 195.74 708.52 194.16L708.52 186.41L704.73 186.41L704.73 184.44L708.52 184.44L708.52 180.72L710.68 180.72L710.68 184.44L716.08 184.44L716.08 186.41L710.68 186.41L710.68 194.16Q710.68 194.83 711.08 195.25Q711.47 195.67 712.12 195.67L715.96 195.67" fill="white" fill-opacity="0.7"/>
<path d="M725.20 197.88Q722.87 197.88 721.44 196.48Q720.02 195.07 720.02 192.60L720.02 189.48Q720.02 187.01 721.44 185.60Q722.87 184.20 725.20 184.20Q726.76 184.20 727.92 184.82Q729.09 185.45 729.74 186.58Q730.38 187.70 730.38 189.24L730.38 191.59L722.13 191.59L722.13 192.84Q722.13 194.30 722.97 195.16Q723.81 196.01 725.20 196.01Q726.40 196.01 727.18 195.54Q727.96 195.07 728.13 194.28L730.29 194.28Q730.07 195.94 728.68 196.91Q727.29 197.88 725.20 197.88M722.13 189.24L722.13 189.91L728.27 189.91L728.27 189.24Q728.27 187.68 727.47 186.83Q726.66 185.98 725.20 185.98Q723.74 185.98 722.93 186.83Q722.13 187.68 722.13 189.24" fill="white" fill-opacity="0.7"/>
<path d="M740.13 197.83L739.07 197.83Q736.86 197.83 735.65 196.84Q734.44 195.84 734.44 194.02L736.60 194.02Q736.60 194.93 737.25 195.44Q737.90 195.96 739.07 195.96L740.13 195.96Q741.33 195.96 741.99 195.43Q742.65 194.90 742.65 193.94Q742.65 192.24 741.09 192.02L737.44 191.50Q736.10 191.30 735.35 190.38Q734.61 189.46 734.61 187.94Q734.61 186.22 735.80 185.23Q736.98 184.25 739.07 184.25L740.13 184.25Q742.05 184.25 743.26 185.20Q744.47 186.14 744.57 187.68L742.38 187.68Q742.34 186.98 741.72 186.53Q741.11 186.07 740.13 186.07L739.07 186.07Q737.97 186.07 737.34 186.58Q736.72 187.08 736.72 187.94Q736.72 189.34 737.99 189.53L741.40 190.01Q744.76 190.49 744.76 193.94Q744.76 195.79 743.55 196.81Q742.34 197.83 740.13 197.83" fill="white" fill-opacity="0.7"/>
<path d="M767.25 197.88Q765.21 197.88 764.01 196.74Q762.81 195.60 762.81 193.75Q762.81 192.53 763.36 191.62Q763.91 190.70 764.90 190.19Q765.88 189.67 767.15 189.67L771.23 189.67L771.23 188.64Q771.23 186.07 768.42 186.07Q767.18 186.07 766.41 186.53Q765.64 186.98 765.59 187.80L763.43 187.80Q763.55 186.24 764.88 185.22Q766.22 184.20 768.42 184.20Q770.82 184.20 772.11 185.35Q773.39 186.50 773.39 188.57L773.39 197.64L771.26 197.64L771.26 195.24L771.21 195.24Q771.02 196.46 769.98 197.17Q768.95 197.88 767.25 197.88M767.78 196.06Q769.36 196.06 770.30 195.29Q771.23 194.52 771.23 193.20L771.23 191.35L767.39 191.35Q766.34 191.35 765.68 191.99Q765.02 192.62 765.02 193.68Q765.02 194.78 765.75 195.42Q766.48 196.06 767.78 196.06" fill="white" fill-opacity="0.7"/>
<path d="M784.22 197.64L781.38 197.64L776.90 184.44L779.22 184.44L782.10 193.32Q782.37 194.11 782.56 194.84Q782.75 195.58 782.85 195.98Q782.97 195.58 783.14 194.84Q783.30 194.11 783.54 193.32L786.42 184.44L788.70 184.44" fill="white" fill-opacity="0.7"/>
<path d="M796.05 197.88Q794.01 197.88 792.81 196.74Q791.61 195.60 791.61 193.75Q791.61 192.53 792.16 191.62Q792.71 190.70 793.70 190.19Q794.68 189.67 795.95 189.67L800.03 189.67L800.03 188.64Q800.03 186.07 797.22 186.07Q795.98 186.07 795.21 186.53Q794.44 186.98 794.39 187.80L792.23 187.80Q792.35 186.24 793.68 185.22Q795.02 184.20 797.22 184.20Q799.62 184.20 800.91 185.35Q802.19 186.50 802.19 188.57L802.19 197.64L800.06 197.64L800.06 195.24L800.01 195.24Q799.82 196.46 798.78 197.17Q797.75 197.88 796.05 197.88M796.58 196.06Q798.16 196.06 799.10 195.29Q800.03 194.52 800.03 193.20L800.03 191.35L796.19 191.35Q795.14 191.35 794.48 191.99Q793.82 192.62 793.82 193.68Q793.82 194.78 794.55 195.42Q795.28 196.06 796.58 196.06" fill="white" fill-opacity="0.7"/>
<path d="M817.72 197.64L806.44 197.64L806.44 195.67L811.12 195.67L811.12 186.41L806.92 186.41L806.92 184.44L813.28 184.44L813.28 195.67L817.72 195.67L817.72 197.64M811.96 182.06Q811.17 182.06 810.71 181.66Q810.26 181.25 810.26 180.55Q810.26 179.83 810.71 179.41Q811.17 178.99 811.96 178.99Q812.75 178.99 813.21 179.41Q813.66 179.83 813.66 180.55Q813.66 181.25 813.21 181.66Q812.75 182.06 811.96 182.06" fill="white" fill-opacity="0.7"/>
<path d="M832 197.64L827.92 197.64Q826.17 197.64 825.12 196.62Q824.08 195.60 824.08 193.92L824.08 182.09L819.52 182.09L819.52 180.12L826.24 180.12L826.24 193.92Q826.24 194.74 826.70 195.20Q827.15 195.67 827.92 195.67L832 195.67" fill="white" fill-opacity="0.7"/>
<path d="M839.25 197.88Q837.21 197.88 836.01 196.74Q834.81 195.60 834.81 193.75Q834.81 192.53 835.36 191.62Q835.91 190.70 836.90 190.19Q837.88 189.67 839.15 189.67L843.23 189.67L843.23 188.64Q843.23 186.07 840.42 186.07Q839.18 186.07 838.41 186.53Q837.64 186.98 837.59 187.80L835.43 187.80Q835.55 186.24 836.88 185.22Q838.22 184.20 840.42 184.20Q842.82 184.20 844.11 185.35Q845.39 186.50 845.39 188.57L845.39 197.64L843.26 197.64L843.26 195.24L843.21 195.24Q843.02 196.46 841.98 197.17Q840.95 197.88 839.25 197.88M839.78 196.06Q841.36 196.06 842.30 195.29Q843.23 194.52 843.23 193.20L843.23 191.35L839.39 191.35Q838.34 191.35 837.68 191.99Q837.02 192.62 837.02 193.68Q837.02 194.78 837.75 195.42Q838.48 196.06 839.78 196.06" fill="white" fill-opacity="0.7"/>
<path d="M855.57 197.88Q854.08 197.88 853.12 197.15Q852.16 196.42 851.99 195.12L851.97 195.12L851.97 197.64L849.81 197.64L849.81 180.12L851.97 180.12L851.97 183.96L851.92 186.96L851.94 186.96Q852.14 185.69 853.11 184.94Q854.08 184.20 855.57 184.20Q857.56 184.20 858.74 185.52Q859.91 186.84 859.91 189.12L859.91 192.98Q859.91 195.24 858.74 196.56Q857.56 197.88 855.57 197.88M854.85 196.01Q856.22 196.01 856.98 195.29Q857.75 194.57 857.75 192.96L857.75 189.12Q857.75 187.49 856.98 186.78Q856.22 186.07 854.85 186.07Q853.53 186.07 852.75 186.91Q851.97 187.75 851.97 189.24L851.97 192.84Q851.97 194.33 852.75 195.17Q853.53 196.01 854.85 196.01" fill="white" fill-opacity="0.7"/>
<path d="M875.20 197.64L871.12 197.64Q869.37 197.64 868.32 196.62Q867.28 195.60 867.28 193.92L867.28 182.09L862.72 182.09L862.72 180.12L869.44 180.12L869.44 193.92Q869.44 194.74 869.90 195.20Q870.35 195.67 871.12 195.67L875.20 195.67" fill="white" fill-opacity="0.7"/>
<path d="M883.60 197.88Q881.27 197.88 879.84 196.48Q878.42 195.07 878.42 192.60L878.42 189.48Q878.42 187.01 879.84 185.60Q881.27 184.20 883.60 184.20Q885.16 184.20 886.32 184.82Q887.49 185.45 888.14 186.58Q888.78 187.70 888.78 189.24L888.78 191.59L880.53 191.59L880.53 192.84Q880.53 194.30 881.37 195.16Q882.21 196.01 883.60 196.01Q884.80 196.01 885.58 195.54Q886.36 195.07 886.53 194.28L888.69 194.28Q888.47 195.94 887.08 196.91Q885.69 197.88 883.60 197.88M880.53 189.24L880.53 189.91L886.67 189.91L886.67 189.24Q886.67 187.68 885.87 186.83Q885.06 185.98 883.60 185.98Q882.14 185.98 881.33 186.83Q880.53 187.68 880.53 189.24" fill="white" fill-opacity="0.7"/>
<path d="M918.52 197.64L907.24 197.64L907.24 195.67L911.92 195.67L911.92 186.41L907.72 186.41L907.72 184.44L914.08 184.44L914.08 195.67L918.52 195.67L918.52 197.64M912.76 182.06Q911.97 182.06 911.51 181.66Q911.06 181.25 911.06 180.55Q911.06 179.83 911.51 179.41Q911.97 178.99 912.76 178.99Q913.55 178.99 914.01 179.41Q914.46 179.83 914.46 180.55Q914.46 181.25 914.01 181.66Q913.55 182.06 912.76 182.06" fill="white" fill-opacity="0.7"/>
<path d="M923.97 197.64L921.81 197.64L921.81 184.44L923.97 184.44L923.97 186.96L923.99 186.96Q924.16 185.64 925.07 184.92Q925.98 184.20 927.50 184.20Q929.49 184.20 930.66 185.42Q931.84 186.65 931.84 188.76L931.84 197.64L929.68 197.64L929.68 189.14Q929.68 187.63 928.92 186.83Q928.17 186.02 926.87 186.02Q925.53 186.02 924.75 186.86Q923.97 187.70 923.97 189.24" fill="white" fill-opacity="0.7"/>
<path d="M955.14 197.64L950.61 197.64L950.61 180.12L955.14 180.12Q956.85 180.12 958.08 180.77Q959.32 181.42 960 182.59Q960.69 183.77 960.69 185.38L960.69 192.36Q960.69 193.97 960 195.16Q959.32 196.34 958.08 196.99Q956.85 197.64 955.14 197.64M952.77 182.04L952.77 195.72L955.14 195.72Q956.73 195.72 957.63 194.83Q958.53 193.94 958.53 192.36L958.53 185.38Q958.53 183.82 957.63 182.93Q956.73 182.04 955.14 182.04" fill="white" fill-opacity="0.7"/>
<path d="M976.12 197.64L964.84 197.64L964.84 195.67L969.52 195.67L969.52 186.41L965.32 186.41L965.32 184.44L971.68 184.44L971.68 195.67L976.12 195.67L976.12 197.64M970.36 182.06Q969.57 182.06 969.11 181.66Q968.66 181.25 968.66 180.55Q968.66 179.83 969.11 179.41Q969.57 178.99 970.36 178.99Q971.15 178.99 971.61 179.41Q972.06 179.83 972.06 180.55Q972.06 181.25 971.61 181.66Q971.15 182.06 970.36 182.06" fill="white" fill-opacity="0.7"/>
<path d="M984.76 201.96L981.06 201.96L981.06 199.99L984.78 199.99Q985.91 199.99 986.56 199.36Q987.21 198.72 987.21 197.64L987.21 196.44L987.26 194.28L987.18 194.28Q986.99 195.46 986.06 196.09Q985.12 196.73 983.70 196.73Q981.66 196.73 980.49 195.43Q979.31 194.14 979.31 191.88L979.31 189.10Q979.31 186.84 980.49 185.52Q981.66 184.20 983.70 184.20Q985.12 184.20 986.06 184.87Q986.99 185.54 987.18 186.72L987.23 186.72L987.23 184.44L989.37 184.44L989.37 197.64Q989.37 199.63 988.13 200.80Q986.90 201.96 984.76 201.96M984.35 194.93Q985.70 194.93 986.46 194.09Q987.23 193.25 987.23 191.76L987.23 189.24Q987.23 187.75 986.46 186.91Q985.70 186.07 984.35 186.07Q982.98 186.07 982.23 186.86Q981.47 187.66 981.47 189L981.47 192Q981.47 193.34 982.23 194.14Q982.98 194.93 984.35 194.93" fill="white" fill-opacity="0.7"/>
<path d="M1004.92 197.64L993.64 197.64L993.64 195.67L998.32 195.67L998.32 186.41L994.12 186.41L994.12 184.44L1000.48 184.44L1000.48 195.67L1004.92 195.67L1004.92 197.64M999.16 182.06Q998.37 182.06 997.91 181.66Q997.46 181.25 997.46 180.55Q997.46 179.83 997.91 179.41Q998.37 178.99 999.16 178.99Q999.95 178.99 1000.41 179.41Q1000.86 179.83 1000.86 180.55Q1000.86 181.25 1000.41 181.66Q999.95 182.06 999.16 182.06" fill="white" fill-opacity="0.7"/>
<path d="M1019.20 197.64L1009.12 197.64L1009.12 180.12L1011.28 180.12L1011.28 195.67L1019.20 195.67" fill="white" fill-opacity="0.7"/>
<path d="M1027.60 197.83Q1025.22 197.83 1023.82 196.44Q1022.42 195.05 1022.42 192.55L1022.42 189.53Q1022.42 187.01 1023.81 185.63Q1025.20 184.25 1027.60 184.25Q1030 184.25 1031.39 185.63Q1032.78 187.01 1032.78 189.53L1032.78 192.55Q1032.78 195.05 1031.38 196.44Q1029.98 197.83 1027.60 197.83M1027.60 195.91Q1029.02 195.91 1029.82 195.12Q1030.62 194.33 1030.62 192.79L1030.62 189.29Q1030.62 187.75 1029.82 186.96Q1029.02 186.17 1027.60 186.17Q1026.21 186.17 1025.39 186.96Q1024.58 187.75 1024.58 189.29L1024.58 192.79Q1024.58 194.33 1025.39 195.12Q1026.21 195.91 1027.60 195.91" fill="white" fill-opacity="0.7"/>
<path d="M1042.19 197.88Q1039.79 197.88 1038.35 196.54Q1036.91 195.19 1036.91 192.84L1036.91 189.24Q1036.91 186.89 1038.35 185.54Q1039.79 184.20 1042.19 184.20Q1044.47 184.20 1045.88 185.42Q1047.28 186.65 1047.35 188.76L1045.19 188.76Q1045.12 187.49 1044.33 186.80Q1043.54 186.12 1042.19 186.12Q1040.78 186.12 1039.92 186.92Q1039.07 187.73 1039.07 189.22L1039.07 192.84Q1039.07 194.33 1039.92 195.14Q1040.78 195.96 1042.19 195.96Q1043.54 195.96 1044.33 195.26Q1045.12 194.57 1045.19 193.32L1047.35 193.32Q1047.28 195.43 1045.88 196.66Q1044.47 197.88 1042.19 197.88" fill="white" fill-opacity="0.7"/>
<path d="M1053.69 197.64L1051.53 197.64L1051.53 180.12L1053.69 180.12L1053.69 189.89L1056.21 189.89L1059.90 184.44L1062.38 184.44L1058.13 190.73L1062.62 197.64L1060.10 197.64L1056.26 191.76L1053.69 191.76" fill="white" fill-opacity="0.7"/>
<path d="M1070.80 197.88Q1068.47 197.88 1067.04 196.48Q1065.62 195.07 1065.62 192.60L1065.62 189.48Q1065.62 187.01 1067.04 185.60Q1068.47 184.20 1070.80 184.20Q1072.36 184.20 1073.52 184.82Q1074.69 185.45 1075.34 186.58Q1075.98 187.70 1075.98 189.24L1075.98 191.59L1067.73 191.59L1067.73 192.84Q1067.73 194.30 1068.57 195.16Q1069.41 196.01 1070.80 196.01Q1072 196.01 1072.78 195.54Q1073.56 195.07 1073.73 194.28L1075.89 194.28Q1075.67 195.94 1074.28 196.91Q1072.89 197.88 1070.80 197.88M1067.73 189.24L1067.73 189.91L1073.87 189.91L1073.87 189.24Q1073.87 187.68 1073.07 186.83Q1072.26 185.98 1070.80 185.98Q1069.34 185.98 1068.53 186.83Q1067.73 187.68 1067.73 189.24" fill="white" fill-opacity="0.7"/>
<path d="M1082.85 197.64L1080.69 197.64L1080.69 184.44L1082.85 184.44L1082.85 186.96L1082.90 186.96Q1083.06 185.69 1083.98 184.94Q1084.89 184.20 1086.42 184.20Q1088.49 184.20 1089.60 185.44Q1090.72 186.67 1090.72 188.95L1090.72 190.08L1088.56 190.08L1088.56 188.95Q1088.56 186.07 1085.75 186.07Q1084.34 186.07 1083.59 186.89Q1082.85 187.70 1082.85 189.24" fill="white" fill-opacity="0.7"/>
<path d="M1099.60 197.88Q1098.71 197.88 1098.17 197.35Q1097.63 196.82 1097.63 195.98Q1097.63 195.10 1098.17 194.54Q1098.71 193.99 1099.60 193.99Q1100.49 193.99 1101.03 194.54Q1101.57 195.10 1101.57 195.98Q1101.57 196.82 1101.03 197.35Q1100.49 197.88 1099.60 197.88" fill="white" fill-opacity="0.7"/>
<path d="M76.11 136.06L66.42 136.06L84.56 65.98L97.14 65.98L115.18 136.06L105.49 136.06L101.07 117.82L80.53 117.82L76.11 136.06M87.54 88.92L82.45 109.95L99.15 109.95L94.16 89.02Q92.72 83.26 91.86 79.23Q90.99 75.20 90.80 73.76Q90.61 75.20 89.74 79.23Q88.88 83.26 87.54 88.92M137.55 136.06L128.05 136.06L128.05 65.98L150.80 65.98Q157.52 65.98 162.42 68.57Q167.31 71.16 170 75.82Q172.69 80.48 172.69 86.91Q172.69 93.24 170 97.90Q167.31 102.56 162.37 105.15Q157.42 107.74 150.80 107.74L137.55 107.74L137.55 136.06M137.55 74.43L137.55 99.29L150.80 99.29Q156.37 99.29 159.63 95.88Q162.90 92.48 162.90 86.91Q162.90 81.24 159.63 77.84Q156.37 74.43 150.80 74.43L137.55 74.43M225.10 136.06L186.90 136.06L186.90 127.42L201.20 127.42L201.20 74.62L186.90 74.62L186.90 65.98L225.10 65.98L225.10 74.62L210.80 74.62L210.80 127.42L225.10 127.42L225.10 136.06M263.98 137.02Q253.62 137.02 247.47 131.60Q241.33 126.17 241.33 116.67L250.83 116.67Q250.83 122.24 254.38 125.40Q257.94 128.57 263.98 128.57Q269.74 128.57 273.15 125.36Q276.56 122.14 276.56 116.76Q276.56 112.73 274.35 109.71Q272.14 106.68 268.11 105.63L257.74 102.84Q250.93 100.92 246.94 95.88Q242.96 90.84 242.96 83.93Q242.96 78.27 245.50 74Q248.05 69.72 252.66 67.37Q257.26 65.02 263.31 65.02Q269.46 65.02 274.11 67.37Q278.77 69.72 281.36 73.95Q283.95 78.17 283.95 83.74L274.54 83.74Q274.54 79.13 271.42 76.25Q268.30 73.37 263.31 73.37Q258.32 73.37 255.30 76.25Q252.27 79.13 252.27 83.74Q252.27 87.48 254.29 90.03Q256.30 92.57 259.95 93.63L270.61 96.51Q277.81 98.43 281.84 103.85Q285.87 109.28 285.87 116.76Q285.87 122.91 283.18 127.47Q280.50 132.03 275.55 134.52Q270.61 137.02 263.98 137.02M342.51 136.06L301.71 136.06L301.71 65.98L342.51 65.98L342.51 74.52L311.12 74.52L311.12 95.36L339.15 95.36L339.15 103.61L311.12 103.61L311.12 127.52L342.51 127.52L342.51 136.06M383.60 136.06L374.10 136.06L374.10 74.62L355.09 74.62L355.09 65.98L402.51 65.98L402.51 74.62L383.60 74.62L383.60 136.06M436.40 137.02Q426.51 137.02 421.18 131.55Q415.86 126.08 415.86 116.67L415.86 65.98L425.36 65.98L425.36 116.67Q425.36 122.24 428.10 125.40Q430.83 128.57 436.40 128.57Q441.87 128.57 444.70 125.40Q447.54 122.24 447.54 116.67L447.54 65.98L457.04 65.98L457.04 116.67Q457.04 126.17 451.71 131.60Q446.38 137.02 436.40 137.02M551.98 137.02Q542.29 137.02 536.58 131.60Q530.86 126.17 530.86 116.67L530.86 85.28Q530.86 75.87 536.58 70.44Q542.29 65.02 551.98 65.02Q561.58 65.02 567.30 70.49Q573.01 75.96 573.01 85.28L563.50 85.28Q563.50 79.61 560.43 76.54Q557.36 73.47 551.98 73.47Q546.51 73.47 543.44 76.54Q540.37 79.61 540.37 85.28L540.37 116.67Q540.37 122.43 543.44 125.50Q546.51 128.57 551.98 128.57Q557.36 128.57 560.43 125.50Q563.50 122.43 563.50 116.67L563.50 107.55L549.87 107.55L549.87 99.10L573.01 99.10L573.01 116.67Q573.01 126.08 567.30 131.55Q561.58 137.02 551.98 137.02M609.20 137.02Q599.60 137.02 594.03 131.45Q588.46 125.88 588.46 115.71L588.46 86.24Q588.46 76.16 594.03 70.59Q599.60 65.02 609.20 65.02Q618.80 65.02 624.37 70.54Q629.94 76.06 629.94 86.24L629.94 115.71Q629.94 125.88 624.37 131.45Q618.80 137.02 609.20 137.02M609.20 128.57Q614.58 128.57 617.50 125.50Q620.43 122.43 620.43 116.67L620.43 85.28Q620.43 79.61 617.55 76.54Q614.67 73.47 609.20 73.47Q603.73 73.47 600.85 76.54Q597.97 79.61 597.97 85.28L597.97 116.67Q597.97 122.43 600.90 125.50Q603.82 128.57 609.20 128.57M673.14 136.06L660.37 136.06L642.42 65.98L652.21 65.98L663.82 113.21Q664.98 117.72 665.79 121.90Q666.61 126.08 666.99 128.28Q667.28 126.08 668.19 121.85Q669.10 117.63 670.16 113.12L681.39 65.98L691.18 65.98L673.14 136.06M771.15 136.06L761.65 136.06L761.65 65.98L784.40 65.98Q791.12 65.98 796.02 68.57Q800.91 71.16 803.60 75.82Q806.29 80.48 806.29 86.91Q806.29 93.24 803.60 97.90Q800.91 102.56 795.97 105.15Q791.02 107.74 784.40 107.74L771.15 107.74L771.15 136.06M771.15 74.43L771.15 99.29L784.40 99.29Q789.97 99.29 793.23 95.88Q796.50 92.48 796.50 86.91Q796.50 81.24 793.23 77.84Q789.97 74.43 784.40 74.43L771.15 74.43M839.98 137.02Q829.62 137.02 823.47 131.60Q817.33 126.17 817.33 116.67L826.83 116.67Q826.83 122.24 830.38 125.40Q833.94 128.57 839.98 128.57Q845.74 128.57 849.15 125.36Q852.56 122.14 852.56 116.76Q852.56 112.73 850.35 109.71Q848.14 106.68 844.11 105.63L833.74 102.84Q826.93 100.92 822.94 95.88Q818.96 90.84 818.96 83.93Q818.96 78.27 821.50 74Q824.05 69.72 828.66 67.37Q833.26 65.02 839.31 65.02Q845.46 65.02 850.11 67.37Q854.77 69.72 857.36 73.95Q859.95 78.17 859.95 83.74L850.54 83.74Q850.54 79.13 847.42 76.25Q844.30 73.37 839.31 73.37Q834.32 73.37 831.30 76.25Q828.27 79.13 828.27 83.74Q828.27 87.48 830.29 90.03Q832.30 92.57 835.95 93.63L846.61 96.51Q853.81 98.43 857.84 103.85Q861.87 109.28 861.87 116.76Q861.87 122.91 859.18 127.47Q856.50 132.03 851.55 134.52Q846.61 137.02 839.98 137.02M918.51 136.06L877.71 136.06L877.71 65.98L918.51 65.98L918.51 74.52L887.12 74.52L887.12 95.36L915.15 95.36L915.15 103.61L887.12 103.61L887.12 127.52L918.51 127.52L918.51 136.06M956.14 136.06L934.54 136.06L934.54 65.98L954.80 65.98Q964.50 65.98 970.11 70.83Q975.73 75.68 975.73 84.12Q975.73 89.60 972.32 93.87Q968.91 98.14 963.54 99.10L963.54 99.39Q967.57 99.87 970.69 102.27Q973.81 104.67 975.58 108.36Q977.36 112.06 977.36 116.48Q977.36 125.50 971.65 130.78Q965.94 136.06 956.14 136.06M943.86 74.33L943.86 95.55L954.70 95.55Q960.08 95.55 963.15 92.72Q966.22 89.88 966.22 84.99Q966.22 80 963.15 77.16Q960.08 74.33 954.80 74.33L943.86 74.33M943.86 103.61L943.86 127.71L955.28 127.71Q961.14 127.71 964.50 124.59Q967.86 121.47 967.86 116.09Q967.86 110.52 964.50 107.07Q961.14 103.61 955.28 103.61" fill="url(#paint2_linear_0_1)"/>
<g id="Group 1">
<rect id="Rectangle 1" x="26" y="168" width="12" height="184" rx="5" fill="url(#paint3_linear_0_1)" fill-opacity="0.9"/>
</g>
<g id="Group 1_2">
<rect id="Rectangle 2" x="26" y="38" width="12" height="119" rx="5" fill="url(#paint4_linear_0_1)" fill-opacity="0.9"/>
</g>
<ellipse id="Ellipse 1" cx="148.5" cy="573" rx="215.5" ry="214" fill="url(#paint5_linear_0_1)" fill-opacity="0.4"/>
<rect id="Rectangle 3" x="1229" y="48" width="300" height="300" rx="25" fill="#FFFBFB" fill-opacity="0.9"/>
<g id="placeholder-logo"><g transform="translate(1229,48) translate(0.0,60.0) scale(1.2000)"><g fill="#666666">
  <path d="m88.05,27.65c-3.15,4 -3.2,51.2 -0.05,54.35c2.75,2.75 71.7,3.15 74.45,0.45c2.85,-2.9 2.3,-53.85 -0.65,-55.9c-1.95,-1.35 -7.15,-1.55 -36.95,-1.55l-34.7,0l-2.1,2.65zm69.45,3.35c0.65,0 1,8.6 1,23.75l0,23.75l-33,0l-33,0l-0.25,-23c-0.15,-12.6 -0.1,-23.45 0.15,-24.1c0.35,-0.85 8.9,-1.05 32.25,-0.75c17.55,0.2 32.3,0.35 32.85,0.35z"/>
  <path d="m99.15,37.3c-6.85,7.35 4.25,17.35 11.4,10.25c1.35,-1.35 2.45,-3.65 2.45,-5.05c0,-6.45 -9.35,-9.95 -13.85,-5.2z"/>
  <path d="m135,42.5c-0.7,0.85 -5.25,5.15 -10.1,9.6l-8.85,8.1l-3.2,-3.2l-3.15,-3.15l-6.35,6.3c-5.55,5.5 -6.35,6.75 -6.35,10.05l0,3.8l28.5,0l28.5,0l0,-8.6l0,-8.55l-8.15,-7.7c-9.35,-8.85 -9.15,-8.7 -10.85,-6.65zm7.25,15.2c0.95,0.9 1.75,2.9 1.75,4.45c6.35,-5.05 4.75,-7.15 4.9,-11.55c0.95,0 0,0 0,0l-6.65,7.1z"/>
  <path d="m53.65,110.75c0.1,4.8 0.45,8.65 0.75,8.5c0.35,-0.15 1.3,-0.25 2.1,-0.25c1.1,0 1.5,-1.2 1.5,-4.75l0,-4.75l3.25,5c4.9,7.5 6.2,6.75 6.55,-3.75c0.25,-8.15 0.15,-8.75 -1.7,-8.75c-1.65,0 -2.05,0.8 -2.3,4.75l-0.3,4.75l-2.8,-4.75c-4.85,-8.25 -7.25,-6.9 -7.05,4z"/>
  <path d="m91,108.9c0,9.65 0.3,10.1 6.1,10.1c5.8,0 7.15,-2.65 1.65,-3.2l-3.25,-0.3l-0.3,-6.75c-0.25,-5.95 -0.55,-6.75 -2.25,-6.75c-1.75,0 -1.95,0.7 -1.95,6.9z"/>
  <path d="m151,102.45c0,0.25 1,2.15 2.25,4.2c1.2,2.1 2.45,5.8 2.75,8.25c0.65,5.9 4,6.95 4,1.25c0.05,-2.1 1.25,-5.85 2.95,-8.9l2.9,-5.25l-2.5,0c-1.8,0 -2.8,0.85 -3.75,3.1l-1.3,3.05l-1.25,-3.05c-1.1,-2.6 -6.05,-4.8 -6.05,-2.65z"/>
  <path d="m191,107.45c0,9.05 3.4,8.85 4.25,-0.2c0.45,-5 0.35,-5.25 -1.9,-5.25c-2.2,0 -2.35,0.4 -2.35,5.45z"/>
  <path d="m180.8,104.75c-1.3,5.35 0.65,13.6 3.45,14.35c2.3,0.6 2.75,0.4 2.75,-1.2c0,-1.05 -0.45,-1.9 -1,-1.9c-0.55,0 -1,-1.6 -1,-3.5c0,-1.95 0.45,-3.5 1,-3.5c0.55,0 1,-0.7 1,-1.5c0,-0.85 -0.45,-1.5 -1,-1.5c-0.55,0 -1,-0.7 -1,-1.5c0,-2.1 -3.65,-1.9 -4.2,0.25z"/>
  <path d="m71.55,106.55c-2.2,2.25 -2.05,9.7 0.3,11.8c4.5,4.1 10.15,0.75 10.15,-6.1c0,-4.85 -2,-7.25 -6,-7.25c-1.55,0 -3.55,0.7 -4.45,1.55zm6.25,5.8c0.25,3.05 0,3.65 -1.6,3.65c-2.3,0 -3.25,-2.65 -2.05,-5.85c1.25,-3.35 3.3,-2.1 3.65,2.2z"/>
  <path d="m105.75,106.1c-2.5,1.45 -2.45,9.95 0.1,12.25c4.3,3.9 10.15,0.35 10.15,-6.2c0,-6 -5.15,-9.05 -10.25,-6.05zm6.05,6.25c0.25,3.05 0,3.65 -1.6,3.65c-2.3,0 -3.25,-2.65 -2.05,-5.85c1.25,-3.35 3.3,-2.1 3.65,2.2z"/>
  <path d="m119.2,106.2c-3.8,3.8 -0.4,12.55 4.4,11.35c1.9,-0.45 2.45,-0.3 2.15,0.65c-0.25,0.7 -1.55,1.2 -2.85,1.1c-4.05,-0.3 -5.35,0.45 -3.85,2.25c0.85,1.05 2.6,1.45 5.35,1.25l4.1,-0.3l0.3,-8.75l0.3,-8.75l-4.35,0c-2.4,0 -4.9,0.55 -5.55,1.2zm6.6,4.45c0.4,2.85 -2.15,4.85 -3.75,2.95c-0.9,-1.1 -0.9,-2 -0.05,-3.6c1.35,-2.5 3.4,-2.15 3.8,0.65z"/>
  <path d="m133.55,106.55c-2.2,2.25 -2.05,9.7 0.3,11.8c4.5,4.1 10.15,0.75 10.15,-6.1c0,-4.85 -2,-7.25 -6,-7.25c-1.55,0 -3.55,0.7 -4.45,1.55zm6.25,5.8c0.25,3.05 0,3.65 -1.6,3.65c-2.3,0 -3.25,-2.65 -2.05,-5.85c1.25,-3.35 3.3,-2.1 3.65,2.2z"/>
  <path d="m167.65,106.85c-3.9,4.3 -0.75,13.15 4.7,13.15c2.4,0 5.65,-2.75 5.65,-4.85c0,-1.4 -2.65,-1.55 -3.5,-0.15c-0.95,1.55 -4.5,1.15 -4.5,-0.5c0,-1.1 1.1,-1.5 4,-1.5c3.15,0 4,-0.35 4,-1.8c0,-5.3 -6.85,-8.25 -10.35,-4.35z"/>
  <path d="m191,117.5c0,2.15 0.4,2.6 2.25,2.3c1.5,-0.2 2.25,-1 2.25,-2.3c0,-1.3 -0.75,-2.1 -2.25,-2.3c-1.85,-0.3 -2.25,0.15 -2.25,2.3z"/>
 </g></g></g>
</g>
<defs>
<linearGradient id="paint0_linear_0_1" x1="0" y1="198" x2="1584" y2="198" gradientUnits="userSpaceOnUse">
<stop stop-color="#3D052C"/>
<stop offset="1"/>
</linearGradient>
<linearGradient id="paint1_linear_0_1" x1="323" y1="-224" x2="323" y2="352" gradientUnits="userSpaceOnUse">
<stop stop-color="#28F6F2" stop-opacity="0.4"/>
<stop offset="1" stop-color="#17908E" stop-opacity="0.7"/>
</linearGradient>
<linearGradient id="paint2_linear_0_1" x1="148.5" y1="38" x2="148.5" y2="140" gradientUnits="userSpaceOnUse">
<stop stop-color="white"/>
<stop offset="1" stop-color="#999999"/>
</linearGradient>
<linearGradient id="paint3_linear_0_1" x1="38" y1="260" x2="26" y2="260" gradientUnits="userSpaceOnUse">
<stop stop-color="#D9D9D9"/>
<stop offset="1" stop-color="#737373"/>
</linearGradient>
<linearGradient id="paint4_linear_0_1" x1="38" y1="97.5" x2="26" y2="97.5" gradientUnits="userSpaceOnUse">
<stop stop-color="#D9D9D9"/>
<stop offset="1" stop-color="#737373"/>
</linearGradient>
<linearGradient id="paint5_linear_0_1" x1="27.5" y1="434.5" x2="148.5" y2="787" gradientUnits="userSpaceOnUse">
<stop stop-color="#2E21BC"/>
<stop offset="1" stop-color="#150F56"/>
</linearGradient>
<clipPath id="clip0_0_1">
<rect width="1584" height="396" fill="white"/>
</clipPath>
</defs>
</svg>
